<?xml version="1.0" encoding="UTF-8"?>
<!--Generator: Apple Native CoreSVG 175.5-->
<!DOCTYPE svg
PUBLIC "-//W3C//DTD SVG 1.1//EN"
       "http://www.w3.org/Graphics/SVG/1.1/DTD/svg11.dtd">
<svg version="1.1" xmlns="http://www.w3.org/2000/svg" xmlns:xlink="http://www.w3.org/1999/xlink" width="37.3877" height="26.1436">
 <g>
  <rect height="26.1436" opacity="0" width="37.3877" x="0" y="0"/>
  <path d="M12.3945 3.3584L35.8848 3.3584C36.7197 3.3584 37.3877 2.70898 37.3877 1.87402C37.3877 1.02051 36.7197 0.371094 35.8848 0.371094L12.3945 0.371094C11.541 0.371094 10.8916 1.02051 10.8916 1.87402C10.8916 2.70898 11.541 3.3584 12.3945 3.3584ZM12.3945 14.584L35.8848 14.584C36.7197 14.584 37.3877 13.916 37.3877 13.0811C37.3877 12.2461 36.7197 11.5967 35.8848 11.5967L12.3945 11.5967C11.541 11.5967 10.8916 12.2461 10.8916 13.0811C10.8916 13.916 11.541 14.584 12.3945 14.584ZM12.3945 25.791L35.8848 25.791C36.7197 25.791 37.3877 25.1416 37.3877 24.3066C37.3877 23.4531 36.7197 22.8037 35.8848 22.8037L12.3945 22.8037C11.541 22.8037 10.8916 23.4531 10.8916 24.3066C10.8916 25.1416 11.541 25.791 12.3945 25.791Z" fill="#000000"/>
  <path d="M1.83691 3.71094L5.00977 3.71094C6.03027 3.71094 6.86523 2.87598 6.86523 1.87402C6.86523 0.834961 6.03027 0.0185547 5.00977 0.0185547L1.83691 0.0185547C0.816406 0.0185547 0 0.834961 0 1.87402C0 2.87598 0.816406 3.71094 1.83691 3.71094ZM1.83691 14.9365L5.00977 14.9365C6.03027 14.9365 6.86523 14.1016 6.86523 13.0811C6.86523 12.0605 6.03027 11.2441 5.00977 11.2441L1.83691 11.2441C0.816406 11.2441 0 12.0605 0 13.0811C0 14.1016 0.816406 14.9365 1.83691 14.9365ZM1.83691 26.1436L5.00977 26.1436C6.03027 26.1436 6.86523 25.3086 6.86523 24.3066C6.86523 23.2676 6.03027 22.4512 5.00977 22.4512L1.83691 22.4512C0.816406 22.4512 0 23.2676 0 24.3066C0 25.3086 0.816406 26.1436 1.83691 26.1436Z" fill="#000000"/>
 </g>
</svg>
